<?xml version="1.0" encoding="UTF-8"?>
<svg version="1.1" xmlns="http://www.w3.org/2000/svg" width="111" height="119">
<path d="M0 0 C3.75327905 1.25109302 5.42695056 3.38622219 8.01953125 6.33984375 C8.47392578 6.84322266 8.92832031 7.34660156 9.39648438 7.86523438 C12.70703125 11.61386866 12.70703125 11.61386866 12.70703125 13.90234375 C13.29871094 14.16354004 13.89039062 14.42473633 14.5 14.69384766 C16.83818848 15.97416104 18.23017324 17.27543239 20.01953125 19.23828125 C20.62023437 19.89054687 21.2209375 20.5428125 21.83984375 21.21484375 C22.45601563 21.89546875 23.0721875 22.57609375 23.70703125 23.27734375 C24.93561734 24.61902145 26.16476873 25.96018176 27.39453125 27.30078125 C28.25304687 28.2438916 28.25304687 28.2438916 29.12890625 29.20605469 C30.42348878 30.59757069 31.77671188 31.93431128 33.14453125 33.25390625 C34.70703125 34.90234375 34.70703125 34.90234375 34.70703125 36.90234375 C36.19203125 37.39734375 36.19203125 37.39734375 37.70703125 37.90234375 C39.28515625 39.5390625 39.28515625 39.5390625 40.95703125 41.58984375 C43.31494854 44.39331228 45.66216194 46.79917608 48.51953125 49.08984375 C51.33182372 51.42183459 52.92979026 53.21044903 53.70703125 56.90234375 C53.51953125 59.15234375 53.51953125 59.15234375 52.70703125 60.90234375 C49.95624241 61.81927336 48.34754212 62.01120458 45.51953125 61.96484375 C44.26140625 61.94421875 43.00328125 61.92359375 41.70703125 61.90234375 C41.77921875 62.49917969 41.85140625 63.09601563 41.92578125 63.7109375 C42.86018421 72.4450096 42.87242759 81.1331263 42.70703125 89.90234375 C42.68020264 91.47556396 42.68020264 91.47556396 42.65283203 93.08056641 C42.58560921 96.50107969 42.49357606 99.92011428 42.39453125 103.33984375 C42.37213379 104.44859863 42.34973633 105.55735352 42.32666016 106.69970703 C42.2910498 107.73466309 42.25543945 108.76961914 42.21875 109.8359375 C42.17947388 111.22897095 42.17947388 111.22897095 42.1394043 112.65014648 C41.99672119 113.39337158 41.85403809 114.13659668 41.70703125 114.90234375 C38.06398261 117.33104284 35.39980786 117.1591005 31.1953125 117.09765625 C30.46708786 117.09482635 29.73886322 117.09199646 28.98857117 117.08908081 C26.66538988 117.07789632 24.34259578 117.05279541 22.01953125 117.02734375 C20.44336495 117.01731169 18.8671926 117.00818623 17.29101562 117 C13.42953858 116.97796271 9.56835054 116.94344516 5.70703125 116.90234375 C5.70703125 116.24234375 5.70703125 115.58234375 5.70703125 114.90234375 C5.13212952 115.22766083 4.55722778 115.55297791 3.96490479 115.88815308 C1.59386693 116.95317485 0.15472754 117.1456836 -2.41894531 117.12939453 C-3.21947327 117.12924347 -4.02000122 117.12909241 -4.8447876 117.12893677 C-5.69909363 117.1186142 -6.55339966 117.10829163 -7.43359375 117.09765625 C-8.31577576 117.09482635 -9.19795776 117.09199646 -10.10687256 117.08908081 C-12.91904374 117.07790336 -15.73089415 117.05280326 -18.54296875 117.02734375 C-20.45181831 117.0173108 -22.36067287 117.0081855 -24.26953125 117 C-28.94413364 116.97797199 -33.61849684 116.94345886 -38.29296875 116.90234375 C-38.29296875 116.24234375 -38.29296875 115.58234375 -38.29296875 114.90234375 C-38.95296875 114.90234375 -39.61296875 114.90234375 -40.29296875 114.90234375 C-40.29296875 97.41234375 -40.29296875 79.92234375 -40.29296875 61.90234375 C-44.58296875 61.90234375 -48.87296875 61.90234375 -53.29296875 61.90234375 C-54.71959094 59.04909938 -54.60330743 57.06779826 -54.29296875 53.90234375 C-51.71920355 49.7199753 -47.96442357 46.83110706 -44.2578125 43.68359375 C-42.4448991 42.04007782 -40.9375309 40.37669642 -39.41796875 38.46484375 C-38.71671875 37.61921875 -38.01546875 36.77359375 -37.29296875 35.90234375 C-36.63296875 35.90234375 -35.97296875 35.90234375 -35.29296875 35.90234375 C-35.08671875 35.18046875 -34.88046875 34.45859375 -34.66796875 33.71484375 C-32.84174166 29.97937925 -30.55010068 28.46646888 -27.29296875 25.90234375 C-26.96296875 25.24234375 -26.63296875 24.58234375 -26.29296875 23.90234375 C-25.63296875 23.90234375 -24.97296875 23.90234375 -24.29296875 23.90234375 C-24.02484375 23.30421875 -23.75671875 22.70609375 -23.48046875 22.08984375 C-22.29379469 19.90386521 -21.19697762 18.48901781 -19.29296875 16.90234375 C-18.63296875 16.90234375 -17.97296875 16.90234375 -17.29296875 16.90234375 C-17.03257813 16.31324219 -16.7721875 15.72414063 -16.50390625 15.1171875 C-15.21874401 12.76658431 -13.85810058 11.29907319 -11.91796875 9.46484375 C-9.12576886 6.76552369 -6.70974214 3.94568802 -4.29296875 0.90234375 C-2.29296875 -0.09765625 -2.29296875 -0.09765625 0 0 Z M-2.29296875 29.90234375 C-5.02705556 32.53636503 -5.02705556 32.53636503 -6.29296875 35.90234375 C-2.66296875 35.90234375 0.96703125 35.90234375 4.70703125 35.90234375 C3.70499804 32.89624412 3.10674679 31.84057554 0.70703125 29.90234375 C-0.28296875 29.90234375 -1.27296875 29.90234375 -2.29296875 29.90234375 Z M-17.29296875 61.90234375 C-17.29296875 62.56234375 -17.29296875 63.22234375 -17.29296875 63.90234375 C0.23801777 64.15085393 0.23801777 64.15085393 17.70703125 62.90234375 C17.70703125 62.57234375 17.70703125 62.24234375 17.70703125 61.90234375 C6.15703125 61.90234375 -5.39296875 61.90234375 -17.29296875 61.90234375 Z M-14.29296875 72.90234375 C-14.29296875 73.23234375 -14.29296875 73.56234375 -14.29296875 73.90234375 C-12.31296875 73.90234375 -10.33296875 73.90234375 -8.29296875 73.90234375 C-8.29296875 73.57234375 -8.29296875 73.24234375 -8.29296875 72.90234375 C-10.27296875 72.90234375 -12.25296875 72.90234375 -14.29296875 72.90234375 Z M0.70703125 72.90234375 C0.70703125 73.23234375 0.70703125 73.56234375 0.70703125 73.90234375 C4.66703125 73.90234375 8.62703125 73.90234375 12.70703125 73.90234375 C12.70703125 73.57234375 12.70703125 73.24234375 12.70703125 72.90234375 C8.74703125 72.90234375 4.78703125 72.90234375 0.70703125 72.90234375 Z M13.70703125 72.90234375 C17.70703125 73.90234375 17.70703125 73.90234375 17.70703125 73.90234375 Z M-17.29296875 83.90234375 C-17.29296875 84.23234375 -17.29296875 84.56234375 -17.29296875 84.90234375 C-12.67296875 84.90234375 -8.05296875 84.90234375 -3.29296875 84.90234375 C-3.29296875 84.57234375 -3.29296875 84.24234375 -3.29296875 83.90234375 C-7.91296875 83.90234375 -12.53296875 83.90234375 -17.29296875 83.90234375 Z M15.70703125 93.90234375 C15.70703125 94.89234375 15.70703125 95.88234375 15.70703125 96.90234375 C16.69703125 96.57234375 17.68703125 96.24234375 18.70703125 95.90234375 C18.37703125 95.24234375 18.04703125 94.58234375 17.70703125 93.90234375 C17.04703125 93.90234375 16.38703125 93.90234375 15.70703125 93.90234375 Z M-17.29296875 94.90234375 C-17.29296875 95.23234375 -17.29296875 95.56234375 -17.29296875 95.90234375 C-13.33296875 95.90234375 -9.37296875 95.90234375 -5.29296875 95.90234375 C-5.29296875 95.57234375 -5.29296875 95.24234375 -5.29296875 94.90234375 C-9.25296875 94.90234375 -13.21296875 94.90234375 -17.29296875 94.90234375 Z " fill="#FF0D0D" transform="translate(56.29296875,1.09765625)"/>
<path d="M0 0 C2.82249951 1.03491649 3.83374226 1.69915265 5.3125 4.375 C6.03425846 7.13080503 6.19515498 8.42582004 5 11 C2.24921116 11.91692961 0.64051087 12.10886083 -2.1875 12.0625 C-4.0746875 12.0315625 -4.0746875 12.0315625 -6 12 C-5.89171875 12.89525391 -5.89171875 12.89525391 -5.78125 13.80859375 C-4.84684704 22.54266585 -4.83460366 31.23078255 -5 40 C-5.02682861 41.57322021 -5.02682861 41.57322021 -5.05419922 43.17822266 C-5.12142204 46.59873594 -5.21345519 50.01777053 -5.3125 53.4375 C-5.33489746 54.54625488 -5.35729492 55.65500977 -5.38037109 56.79736328 C-5.41598145 57.83231934 -5.4515918 58.86727539 -5.48828125 59.93359375 C-5.51446533 60.86228271 -5.54064941 61.79097168 -5.56762695 62.74780273 C-5.71031006 63.49102783 -5.85299316 64.23425293 -6 65 C-9.64304864 67.42869909 -12.30722339 67.25675675 -16.51171875 67.1953125 C-17.23994339 67.1924826 -17.96816803 67.18965271 -18.71846008 67.18673706 C-21.04164137 67.17555257 -23.36443547 67.15045166 -25.6875 67.125 C-27.2636663 67.11496794 -28.83983865 67.10584248 -30.41601562 67.09765625 C-34.27749267 67.07561896 -38.13868071 67.04110141 -42 67 C-42 66.34 -42 65.68 -42 65 C-42.57490173 65.32531708 -43.14980347 65.65063416 -43.74212646 65.98580933 C-46.11316432 67.0508311 -47.55230371 67.24333985 -50.12597656 67.22705078 C-50.92650452 67.22689972 -51.72703247 67.22674866 -52.55181885 67.22659302 C-53.40612488 67.21627045 -54.26043091 67.20594788 -55.140625 67.1953125 C-56.02280701 67.1924826 -56.90498901 67.18965271 -57.81390381 67.18673706 C-60.62607499 67.17555961 -63.4379254 67.15045951 -66.25 67.125 C-68.15884956 67.11496705 -70.06770412 67.10584175 -71.9765625 67.09765625 C-76.65116489 67.07562824 -81.32552809 67.04111511 -86 67 C-86 66.34 -86 65.68 -86 65 C-86.66 65 -87.32 65 -88 65 C-88 47.51 -88 30.02 -88 12 C-92.29 12 -96.58 12 -101 12 C-102.35439668 9.29120665 -102.06501451 6.99066732 -102 4 C-101.34 3.67 -100.68 3.34 -100 3 C-100 3.66 -100 4.32 -100 5 C-95.05 5 -90.1 5 -85 5 C-85 23.15 -85 41.3 -85 60 C-72.46 60 -59.92 60 -47 60 C-47 57.03 -47 54.06 -47 51 C-43.87386607 53.96160056 -41.95216435 56.09567131 -40 60 C-29.77 60 -19.54 60 -9 60 C-9 41.85 -9 23.7 -9 5 C-5.04 5 -1.08 5 3 5 C2.01 3.35 1.02 1.7 0 0 Z " fill="#FFFEFE" transform="translate(104,51)"/>
<path d="M0 0 C13.86 0 27.72 0 42 0 C42 2.64 42 5.28 42 8 C28.14 8 14.28 8 0 8 C0 5.36 0 2.72 0 0 Z " fill="#FFFFFF" transform="translate(36,67)"/>
<path d="M0 0 C13.86 0 27.72 0 42 0 C42 2.64 42 5.28 42 8 C22.695 7.505 22.695 7.505 3 7 C3 7.66 3 8.32 3 9 C2.01 9 1.02 9 0 9 C0 6.03 0 3.06 0 0 Z " fill="#FFFFFF" transform="translate(36,56)"/>
<path d="M0 0 C5.24284116 4.3690343 10.51941304 8.83277764 15 14 C15 14.66 15 15.32 15 16 C6.85614849 16.62645012 6.85614849 16.62645012 3.4375 14.125 C2 12 2 12 2 10 C-1.26460973 11.80412643 -2.88929795 12.83394693 -5 16 C-7.1640625 16.29296875 -7.1640625 16.29296875 -9.625 16.1875 C-10.85089844 16.14689453 -10.85089844 16.14689453 -12.1015625 16.10546875 C-12.72804687 16.07066406 -13.35453125 16.03585938 -14 16 C-13.57847656 15.51789062 -13.15695313 15.03578125 -12.72265625 14.5390625 C-12.17480469 13.90742187 -11.62695312 13.27578125 -11.0625 12.625 C-10.51722656 11.99851562 -9.97195312 11.37203125 -9.41015625 10.7265625 C-7.93041376 9.04367666 -7.93041376 9.04367666 -7 7 C-6.34 7 -5.68 7 -5 7 C-4.731875 6.401875 -4.46375 5.80375 -4.1875 5.1875 C-3.00913692 3.01683117 -1.76939019 1.69182788 0 0 Z " fill="#FFF9F9" transform="translate(55,21)"/>
<path d="M0 0 C8.25 0 16.5 0 25 0 C20 8 20 8 17.59643555 8.90820312 C16.784729 8.86630859 15.97302246 8.82441406 15.13671875 8.78125 C14.25048828 8.75546875 13.36425781 8.7296875 12.45117188 8.703125 C11.53916016 8.63609375 10.62714844 8.5690625 9.6875 8.5 C8.75615234 8.46390625 7.82480469 8.4278125 6.86523438 8.390625 C4.57258193 8.29656746 2.28842909 8.16539029 0 8 C0 5.36 0 2.72 0 0 Z " fill="#FFFFFF" transform="translate(36,78)"/>
<path d="M0 0 C6.27 0 12.54 0 19 0 C19 2.97 19 5.94 19 9 C12.73 9 6.46 9 0 9 C0 6.03 0 3.06 0 0 Z " fill="#FFFFFF" transform="translate(36,88)"/>
<path d="M0 0 C2.05078125 0.03255208 4.1015625 0.06510417 6.15234375 0.09765625 C6.15234375 3.06765625 6.15234375 6.03765625 6.15234375 9.09765625 C4.83234375 9.42765625 3.51234375 9.75765625 2.15234375 10.09765625 C2.15234375 9.43765625 2.15234375 8.77765625 2.15234375 8.09765625 C1.49234375 7.76765625 0.83234375 7.43765625 0.15234375 7.09765625 C-0.17765625 7.75765625 -0.50765625 8.41765625 -0.84765625 9.09765625 C-2.84765625 7.09765625 -2.84765625 7.09765625 -3.03515625 4.03515625 C-2.78699548 0.1473042 -2.78699548 0.1473042 0 0 Z " fill="#FFFBFB" transform="translate(71.84765625,87.90234375)"/>
</svg>
